<?xml version="1.0" encoding="UTF-8"?>
<svg version="1.1" xmlns="http://www.w3.org/2000/svg" width="192" height="192">
<path d="M0 0 C6.6 0 13.2 0 20 0 C20 2.97 20 5.94 20 9 C20.79664063 8.59007812 21.59328125 8.18015625 22.4140625 7.7578125 C24.00347656 6.94957031 24.00347656 6.94957031 25.625 6.125 C26.66914062 5.59132813 27.71328125 5.05765625 28.7890625 4.5078125 C29.84867188 4.01023437 30.90828125 3.51265625 32 3 C32.93199219 2.51144531 33.86398438 2.02289062 34.82421875 1.51953125 C39.80086116 0.70539418 42.95919784 3.09651428 47.1875 5.5625 C48.88940617 6.50870601 50.59252457 7.45273508 52.296875 8.39453125 C53.11091797 8.85037598 53.92496094 9.3062207 54.76367188 9.77587891 C58.22858066 11.67250037 61.8078544 13.25444792 65.421875 14.83984375 C70.36025194 17.06211338 75.17245669 19.5483157 80 22 C78.89342201 25.31973396 78.45585107 25.64400178 75.65625 27.4453125 C74.65271484 28.10080078 74.65271484 28.10080078 73.62890625 28.76953125 C72.92636719 29.21683594 72.22382813 29.66414063 71.5 30.125 C67.02450323 32.78687423 67.02450323 32.78687423 63 36 C58.09023027 36.71448142 54.61654778 34.48080655 50.5 32.125 C43.68486346 27.64128351 43.68486346 27.64128351 36.13720703 26.32836914 C33.80893539 27.06004326 31.71698491 27.99652448 29.5234375 29.06640625 C28.27046875 29.6706543 28.27046875 29.6706543 26.9921875 30.28710938 C25.2395443 31.14119595 23.48694048 31.99536333 21.734375 32.84960938 C20.48527344 33.45192383 20.48527344 33.45192383 19.2109375 34.06640625 C18.45087402 34.43709229 17.69081055 34.80777832 16.90771484 35.18969727 C15 36 15 36 13 36 C13 45.9 13 55.8 13 66 C6.565 66.495 6.565 66.495 0 67 C1.85625 67.556875 1.85625 67.556875 3.75 68.125 C13.58944515 71.44600582 23.88450048 76.22332575 31 84 C31 88.69073745 30.45211095 89.00146227 27.3125 92.1875 C23.33265698 96.44303374 20.56264693 100.78846321 18 106 C13.25869912 104.30426783 9.70644747 101.73968678 5.6953125 98.75390625 C0.38304832 95.29708507 -5.07306567 93.55445807 -11.25 92.3125 C-12.45140625 92.06113281 -13.6528125 91.80976562 -14.890625 91.55078125 C-19.8857615 90.88128102 -24.96019651 91 -30 91 C-30 82.42 -30 73.84 -30 65 C-26.9475 64.979375 -23.895 64.95875 -20.75 64.9375 C-19.31672363 64.92384399 -19.31672363 64.92384399 -17.85449219 64.90991211 C-16.71222168 64.90616577 -16.71222168 64.90616577 -15.546875 64.90234375 C-14.77182617 64.89710693 -13.99677734 64.89187012 -13.19824219 64.88647461 C-11 65 -11 65 -7 66 C-7 51.48 -7 36.96 -7 22 C-5.02 21.01 -3.04 20.02 -1 19 C-0.67 12.73 -0.34 6.46 0 0 Z " fill="#FDD64A" transform="translate(59,15)"/>
<path d="M0 0 C0 8.58 0 17.16 0 26 C-2.97 26 -5.94 26 -9 26 C-25.13841159 27.59861624 -37.60552138 33.04553632 -49 45 C-49.33 45.66 -49.66 46.32 -50 47 C-59.9 47 -69.8 47 -80 47 C-78.02200308 37.11001538 -71.04295428 27.03221571 -63 21 C-62.67 20.34 -62.34 19.68 -62 19 C-61.01 19 -60.02 19 -59 19 C-58.67 18.01 -58.34 17.02 -58 16 C-50.07362829 10.04275837 -41.35356901 6.17111801 -32 3 C-30.96359375 2.6390625 -29.9271875 2.278125 -28.859375 1.90625 C-19.69723335 -0.99759817 -9.478503 -0.07463388 0 0 Z " fill="#049712" transform="translate(161,80)"/>
<path d="M0 0 C21.35332232 -0.302884 21.35332232 -0.302884 30 2 C30.73863281 2.19464844 31.47726563 2.38929687 32.23828125 2.58984375 C42.57212382 5.69183202 53.63615458 10.95190345 61 19 C61 23.69073745 60.45211095 24.00146227 57.3125 27.1875 C53.33265698 31.44303374 50.56264693 35.78846321 48 41 C43.25869912 39.30426783 39.70644747 36.73968678 35.6953125 33.75390625 C30.38304832 30.29708507 24.92693433 28.55445807 18.75 27.3125 C17.54859375 27.06113281 16.3471875 26.80976562 15.109375 26.55078125 C10.1142385 25.88128102 5.03980349 26 0 26 C0 17.42 0 8.84 0 0 Z " fill="#049812" transform="translate(29,80)"/>
<path d="M0 0 C2.3650407 1.11697044 2.83829859 2.44652917 3.76171875 4.83203125 C4.42171875 4.83203125 5.08171875 4.83203125 5.76171875 4.83203125 C10.11579493 12.25728616 13.71707615 19.06210738 11.76171875 27.83203125 C8.03089994 32.94858276 2.6625511 35.76082219 -3.23828125 37.83203125 C-11.17409364 38.94767596 -19.23786628 38.97632731 -27.23828125 38.83203125 C-27.23828125 37.84203125 -27.23828125 36.85203125 -27.23828125 35.83203125 C-25.75328125 35.33703125 -25.75328125 35.33703125 -24.23828125 34.83203125 C-23.07161458 32.91536458 -23.07161458 32.91536458 -22.23828125 30.83203125 C-21.90828125 30.17203125 -21.57828125 29.51203125 -21.23828125 28.83203125 C-20.57828125 28.83203125 -19.91828125 28.83203125 -19.23828125 28.83203125 C-18.94953125 28.11015625 -18.66078125 27.38828125 -18.36328125 26.64453125 C-17.67250121 24.91758116 -16.96521332 23.19698956 -16.23046875 21.48828125 C-15.23426232 18.82127192 -14.75577375 16.31318218 -14.23828125 13.51953125 C-12.66715015 7.519927 -9.53104262 4.79088913 -4.7109375 1.09765625 C-2.23828125 -0.16796875 -2.23828125 -0.16796875 0 0 Z " fill="#FED64B" transform="translate(141.23828125,40.16796875)"/>
<path d="M0 0 C4.57627119 3.15254237 4.57627119 3.15254237 6 6 C6.43103448 13.75862069 6.43103448 13.75862069 4 17 C1.30792498 19.09383612 -0.55813021 19.93418961 -3.9375 20.4375 C-7.89346816 19.87236169 -9.95372709 18.56163859 -13 16 C-14.375 13.25 -14.375 13.25 -15 11 C-15.66 11.66 -16.32 12.32 -17 13 C-16.6814823 15.10820797 -16.6814823 15.10820797 -16 17 C-15.34 17 -14.68 17 -14 17 C-14 17.99 -14 18.98 -14 20 C-16.8125 20.3125 -16.8125 20.3125 -20 20 C-21.75 17.5625 -21.75 17.5625 -23 15 C-23.66 14.67 -24.32 14.34 -25 14 C-25 15.65 -25 17.3 -25 19 C-26.65614657 19.38218767 -28.32457024 19.71395102 -30 20 C-32.04698414 17.95301586 -31.70045693 13.69588759 -32 11 C-32.53625 11.495 -33.0725 11.99 -33.625 12.5 C-36.59358445 14.37489544 -38.55312427 14.23501425 -42 14 C-42 15.98 -42 17.96 -42 20 C-43.65 20 -45.3 20 -47 20 C-47 13.4 -47 6.8 -47 0 C-35.375 -0.25 -35.375 -0.25 -32 2 C-31.67 1.34 -31.34 0.68 -31 0 C-20.31569507 -0.76681614 -20.31569507 -0.76681614 -17.08984375 1.11328125 C-15.75 2.5 -15.75 2.5 -14 5 C-13.236875 4.195625 -12.47375 3.39125 -11.6875 2.5625 C-7.67244333 -1.26580985 -5.225282 -1.35857332 0 0 Z M-42 5 C-42 5.99 -42 6.98 -42 8 C-40.35 8 -38.7 8 -37 8 C-37 7.01 -37 6.02 -37 5 C-38.65 5 -40.3 5 -42 5 Z M-25 5 C-25 5.99 -25 6.98 -25 8 C-23.35 8 -21.7 8 -20 8 C-20 7.01 -20 6.02 -20 5 C-21.65 5 -23.3 5 -25 5 Z M-7 5 C-9.31543207 7.76988076 -9.31543207 7.76988076 -8.6875 10.625 C-8.2258486 12.93501965 -8.2258486 12.93501965 -7 14 C-4.04195427 14.33340471 -4.04195427 14.33340471 -1 14 C1.28287629 11.30486239 1.28287629 11.30486239 0.6875 8.9375 C0.02860761 6.95524751 0.02860761 6.95524751 -1 5 C-3.91634129 4.7497843 -3.91634129 4.7497843 -7 5 Z " fill="#049711" transform="translate(106,139)"/>
<path d="M0 0 C1.65 0 3.3 0 5 0 C5 4.62 5 9.24 5 14 C8.3 14 11.6 14 15 14 C15.12375 12.7625 15.12375 12.7625 15.25 11.5 C16.16447269 7.23246079 17.92223178 3.80763106 20 0 C21.98 0 23.96 0 26 0 C26.34933594 0.92683594 26.69867188 1.85367188 27.05859375 2.80859375 C27.74115234 4.60490234 27.74115234 4.60490234 28.4375 6.4375 C29.11619141 8.22994141 29.11619141 8.22994141 29.80859375 10.05859375 C30.7144826 12.84445723 30.7144826 12.84445723 32 14 C32.33 9.38 32.66 4.76 33 0 C39 0 39 0 40.6796875 1.53125 C41.27136719 2.50578125 41.27136719 2.50578125 41.875 3.5 C42.28492188 4.1496875 42.69484375 4.799375 43.1171875 5.46875 C43.55417969 6.22671875 43.55417969 6.22671875 44 7 C44.33 4.69 44.66 2.38 45 0 C46.98 0 48.96 0 51 0 C51 6.27 51 12.54 51 19 C49.35 19.33 47.7 19.66 46 20 C44.02 17.36 42.04 14.72 40 12 C39.67 14.31 39.34 16.62 39 19 C35.26562152 19.87867729 31.83225427 20.08912219 28 20 C27.67 19.01 27.34 18.02 27 17 C25.700625 17.12375 24.40125 17.2475 23.0625 17.375 C21.96615234 17.47941406 21.96615234 17.47941406 20.84765625 17.5859375 C20.23792969 17.72257812 19.62820312 17.85921875 19 18 C18.67 18.66 18.34 19.32 18 20 C12.06 20 6.12 20 0 20 C0 13.4 0 6.8 0 0 Z M22 9 C21.67 9.99 21.34 10.98 21 12 C21.99 12 22.98 12 24 12 C24 11.01 24 10.02 24 9 C23.34 9 22.68 9 22 9 Z " fill="#049811" transform="translate(120,139)"/>
<path d="M0 0 C0.99 0.66 1.98 1.32 3 2 C2.34 3.32 1.68 4.64 1 6 C-1.31 6 -3.62 6 -6 6 C-5.15115234 6.30744141 -5.15115234 6.30744141 -4.28515625 6.62109375 C-3.55167969 6.89050781 -2.81820312 7.15992188 -2.0625 7.4375 C-1.33160156 7.70433594 -0.60070312 7.97117188 0.15234375 8.24609375 C2 9 2 9 3 10 C3.58139535 16.27906977 3.58139535 16.27906977 1.4375 18.9375 C-1.88392645 20.38530127 -4.41054449 20.3204871 -8 20 C-10.4375 19 -10.4375 19 -12 18 C-12 18.66 -12 19.32 -12 20 C-13.65 20 -15.3 20 -17 20 C-17.33 19.01 -17.66 18.02 -18 17 C-19.299375 17.12375 -20.59875 17.2475 -21.9375 17.375 C-23.03384766 17.47941406 -23.03384766 17.47941406 -24.15234375 17.5859375 C-24.76207031 17.72257812 -25.37179688 17.85921875 -26 18 C-26.33 18.66 -26.66 19.32 -27 20 C-28.65 20 -30.3 20 -32 20 C-30.69995861 12.7642433 -28.27658805 6.55317611 -25 0 C-23.02 0 -21.04 0 -19 0 C-17.02 4.62 -15.04 9.24 -13 14 C-11.68 13.67 -10.36 13.34 -9 13 C-6.99053778 13.27050453 -4.98645776 13.59367909 -3 14 C-3.56589844 13.72285156 -4.13179687 13.44570312 -4.71484375 13.16015625 C-5.44832031 12.79792969 -6.18179688 12.43570313 -6.9375 12.0625 C-7.66839844 11.70285156 -8.39929688 11.34320313 -9.15234375 10.97265625 C-11 10 -11 10 -12 9 C-12.04092937 6.66702567 -12.04241723 4.33294775 -12 2 C-7.54358475 -0.65262813 -5.03446455 -1.45440087 0 0 Z M-23 9 C-23.33 9.99 -23.66 10.98 -24 12 C-23.01 12 -22.02 12 -21 12 C-21 11.01 -21 10.02 -21 9 C-21.66 9 -22.32 9 -23 9 Z " fill="#049812" transform="translate(48,139)"/>
<path d="M0 0 C0.99 0.33 1.98 0.66 3 1 C3.66 0.67 4.32 0.34 5 0 C8.5 -0.1875 8.5 -0.1875 12 0 C14 2 14 2 14 13 C6.74 13 -0.52 13 -8 13 C-8 9.04 -8 5.08 -8 1 C-5.2540274 -0.3729863 -3.0410953 -0.12412634 0 0 Z " fill="#049812" transform="translate(93,59)"/>
<path d="M0 0 C12.05526992 -0.43573265 12.05526992 -0.43573265 16 3 C18.46751239 6.70126859 18.30721156 8.62223532 18 13 C17.5 15.25 17.5 15.25 16 17 C10.44412584 20.08364308 6.63416997 20 0 20 C0 13.4 0 6.8 0 0 Z M5 5 C5 7.97 5 10.94 5 14 C7.84326464 14.23053497 9.46145349 14.35903101 11.875 12.75 C13.21804394 11.0549643 13.21804394 11.0549643 12.8125 8.9375 C12.06529664 6.81287474 12.06529664 6.81287474 10 5 C7.41645782 4.83312552 7.41645782 4.83312552 5 5 Z " fill="#049811" transform="translate(173,139)"/>
<path d="M0 0 C1.65 0 3.3 0 5 0 C5.0814222 2.22855574 5.13938079 4.45797655 5.1875 6.6875 C5.22230469 7.92886719 5.25710937 9.17023438 5.29296875 10.44921875 C4.95907002 14.49607131 3.88757052 17.11242948 1 20 C-2.47256915 20.30867281 -4.3872288 20.38701339 -7.375 18.5 C-7.91125 18.005 -8.4475 17.51 -9 17 C-8.34 15.68 -7.68 14.36 -7 13 C-4.03 13.495 -4.03 13.495 -1 14 C-0.67 9.38 -0.34 4.76 0 0 Z " fill="#039912" transform="translate(11,139)"/>
<path d="M0 0 C0.99 0 1.98 0 3 0 C3.66 0.66 4.32 1.32 5 2 C5.33 1.34 5.66 0.68 6 0 C6.99 0 7.98 0 9 0 C9 2.97 9 5.94 9 9 C6 9 3 9 0 9 C0 6.03 0 3.06 0 0 Z " fill="#000000" transform="translate(121,171)"/>
<path d="M0 0 C3.375 -0.125 3.375 -0.125 7 0 C9 2 9 2 9.25 4.5 C9 7 9 7 7 9 C3.375 9.125 3.375 9.125 0 9 C0 6.03 0 3.06 0 0 Z M3 3 C3.33 4.32 3.66 5.64 4 7 C4.66 6.67 5.32 6.34 6 6 C6 5.01 6 4.02 6 3 C5.01 3 4.02 3 3 3 Z " fill="#000000" transform="translate(15,171)"/>
<path d="M0 0 C2.64 0 5.28 0 8 0 C7.814375 0.928125 7.62875 1.85625 7.4375 2.8125 C6.75876119 6.01343771 6.75876119 6.01343771 8 9 C5.36 9 2.72 9 0 9 C0 6.03 0 3.06 0 0 Z " fill="#000000" transform="translate(61,171)"/>
<path d="M0 0 C3.0625 0.1875 3.0625 0.1875 5.0625 2.1875 C4.6875 5.8125 4.6875 5.8125 4.0625 9.1875 C1.4225 9.1875 -1.2175 9.1875 -3.9375 9.1875 C-4.03515625 3.03515625 -4.03515625 3.03515625 -3.9375 1.1875 C-2.9375 0.1875 -2.9375 0.1875 0 0 Z M-1.9375 3.1875 C-1.6075 4.5075 -1.2775 5.8275 -0.9375 7.1875 C0.0525 6.8575 1.0425 6.5275 2.0625 6.1875 C2.0625 5.1975 2.0625 4.2075 2.0625 3.1875 C0.7425 3.1875 -0.5775 3.1875 -1.9375 3.1875 Z " fill="#000000" transform="translate(93.9375,170.8125)"/>
<path d="M0 0 C2.31 0 4.62 0 7 0 C7 2.97 7 5.94 7 9 C4.69 9 2.38 9 0 9 C0 6.03 0 3.06 0 0 Z " fill="#000000" transform="translate(138,171)"/>
<path d="M0 0 C2.31 0 4.62 0 7 0 C7 2.97 7 5.94 7 9 C4.69 9 2.38 9 0 9 C0 6.03 0 3.06 0 0 Z " fill="#000000" transform="translate(31,171)"/>
<path d="M0 0 C0.99 0 1.98 0 3 0 C3.66 0.99 4.32 1.98 5 3 C5.33 2.01 5.66 1.02 6 0 C6.66 0 7.32 0 8 0 C8 2.97 8 5.94 8 9 C4 8 4 8 3 7 C2.67 7.66 2.34 8.32 2 9 C1.34 9 0.68 9 0 9 C0 6.03 0 3.06 0 0 Z " fill="#000000" transform="translate(153,171)"/>
<path d="M0 0 C2.33294775 -0.04241723 4.66702567 -0.04092937 7 0 C8 1 8 1 8.0625 3.5625 C8.041875 4.366875 8.02125 5.17125 8 6 C6.02 6 4.04 6 2 6 C2 6.99 2 7.98 2 9 C1.34 9 0.68 9 0 9 C0 6.03 0 3.06 0 0 Z " fill="#000000" transform="translate(106,171)"/>
<path d="M0 0 C0.99 0 1.98 0 3 0 C3.66 0.99 4.32 1.98 5 3 C5.33 2.01 5.66 1.02 6 0 C6.99 0 7.98 0 9 0 C8.5020163 3.73487777 8.12508244 5.81237635 6 9 C5.01 9 4.02 9 3 9 C0 3.375 0 3.375 0 0 Z " fill="#000000" transform="translate(45,171)"/>
<path d="M0 0 C2.64 0 5.28 0 8 0 C8 0.99 8 1.98 8 3 C7.34 3 6.68 3 6 3 C6 4.98 6 6.96 6 9 C5.01 9 4.02 9 3 9 C3 7.02 3 5.04 3 3 C2.01 3 1.02 3 0 3 C0 2.01 0 1.02 0 0 Z " fill="#000000" transform="translate(168,171)"/>
<path d="M0 0 C0.66 0 1.32 0 2 0 C2 2.31 2 4.62 2 7 C3.65 7 5.3 7 7 7 C7 7.66 7 8.32 7 9 C4.69 9 2.38 9 0 9 C0 6.03 0 3.06 0 0 Z " fill="#000000" transform="translate(76,171)"/>
</svg>
