<?xml version="1.0" encoding="UTF-8"?>
<svg version="1.1" xmlns="http://www.w3.org/2000/svg" width="180" height="180">
<path d="M0 0 C6.27 0 12.54 0 19 0 C19.495 3.96 19.495 3.96 20 8 C20.94101563 7.47148437 21.88203125 6.94296875 22.8515625 6.3984375 C24.10880824 5.72290247 25.36665302 5.04848148 26.625 4.375 C27.24246094 4.024375 27.85992187 3.67375 28.49609375 3.3125 C31.64503565 1.65516216 33.49928771 0.90732318 37.0390625 1.5625 C40.33093961 3.16066725 43.55969459 4.83507394 46.75 6.625 C53.3776632 10.28199108 60.16772504 13.37124685 67.18457031 16.20947266 C67.91385742 16.51675293 68.64314453 16.8240332 69.39453125 17.140625 C70.04268799 17.40391602 70.69084473 17.66720703 71.35864258 17.93847656 C73.45687536 19.29547733 74.06348273 20.72260723 75 23 C72.38883335 24.94747077 69.73256163 26.8218084 67.0625 28.6875 C66.32708984 29.23728516 65.59167969 29.78707031 64.83398438 30.35351562 C59.33153959 34.1259341 59.33153959 34.1259341 55.640625 33.77685547 C53.29361967 33.02788465 51.19145712 32.12249149 49 31 C47.92492187 30.45859375 46.84984375 29.9171875 45.7421875 29.359375 C43.82231407 28.28173487 41.90565876 27.19834238 39.9921875 26.109375 C34.87459898 24.21199231 31.22072601 25.4538168 26.359375 27.62890625 C25.15084862 28.26325181 23.94768737 28.90791978 22.75 29.5625 C16.37279843 33 16.37279843 33 13 33 C13 42.57 13 52.14 13 62 C6.565 62.495 6.565 62.495 0 63 C0.89460938 63.29132813 1.78921875 63.58265625 2.7109375 63.8828125 C13.02195942 67.3784468 21.8105148 71.67256587 30 79 C29.42676569 82.86933162 27.61046448 85.15222057 25 88 C24.34 88 23.68 88 23 88 C22.62875 89.0209375 22.62875 89.0209375 22.25 90.0625 C20.75802092 93.56865083 18.93164489 96.71620368 17 100 C16.01 99.67 15.02 99.34 14 99 C14 98.34 14 97.68 14 97 C13.01 97 12.02 97 11 97 C11 96.34 11 95.68 11 95 C10.34 94.7525 9.68 94.505 9 94.25 C6.65956354 93.27481814 4.49082249 92.23220934 2.25 91.0625 C-7.93546609 86.01683473 -16.69384041 85.44512439 -28 85 C-28 77.08 -28 69.16 -28 61 C-25.1125 60.979375 -22.225 60.95875 -19.25 60.9375 C-18.34668945 60.928396 -17.44337891 60.91929199 -16.51269531 60.90991211 C-15.43133301 60.90616577 -15.43133301 60.90616577 -14.328125 60.90234375 C-13.5949707 60.89710693 -12.86181641 60.89187012 -12.10644531 60.88647461 C-9.95073752 61.00265497 -8.08168674 61.4508124 -6 62 C-6.01571045 60.76846191 -6.0314209 59.53692383 -6.04760742 58.26806641 C-6.10180589 53.70970165 -6.13631322 49.1513655 -6.16479492 44.59277344 C-6.17990462 42.61778987 -6.20039328 40.64283996 -6.22631836 38.66796875 C-6.26260619 35.83324894 -6.27970416 32.99897174 -6.29296875 30.1640625 C-6.30845261 29.27756012 -6.32393646 28.39105774 -6.33988953 27.47769165 C-6.34011612 26.65699188 -6.34034271 25.83629211 -6.34057617 24.99072266 C-6.34723801 24.26680328 -6.35389984 23.54288391 -6.36076355 22.79702759 C-6 21 -6 21 -3 19 C-2.01 19 -1.02 19 0 19 C0 12.73 0 6.46 0 0 Z " fill="#FED74A" transform="translate(55,14)"/>
<path d="M0 0 C0 7.92 0 15.84 0 24 C-2.3925 24.0825 -4.785 24.165 -7.25 24.25 C-20.2188164 24.97027034 -30.51265326 29.48813303 -41 37 C-41.495 37.99 -41.495 37.99 -42 39 C-42.66 39 -43.32 39 -44 39 C-44 39.66 -44 40.32 -44 41 C-45.09887695 42.60668945 -45.09887695 42.60668945 -47 44 C-49.91088867 44.34057617 -49.91088867 44.34057617 -53.41796875 44.29296875 C-54.67158203 44.28330078 -55.92519531 44.27363281 -57.21679688 44.26367188 C-58.52712891 44.23853516 -59.83746094 44.21339844 -61.1875 44.1875 C-62.52277163 44.17244967 -63.85805937 44.15876187 -65.19335938 44.14648438 C-68.46264576 44.11107694 -71.73112093 44.0616889 -75 44 C-72.58010543 30.44604612 -60.5015593 19.16134513 -49.65063477 11.48608398 C-34.46292573 1.38048603 -17.78192632 -0.30658494 0 0 Z " fill="#049812" transform="translate(151,75)"/>
<path d="M0 0 C20.71921104 -0.47813564 40.58467034 2.3244515 56.8125 16.59375 C58 18 58 18 57.9375 19.875 C56.69817391 22.68413913 55.0689477 24.74296615 53 27 C52.34 27 51.68 27 51 27 C50.7525 27.680625 50.505 28.36125 50.25 29.0625 C48.75802092 32.56865083 46.93164489 35.71620368 45 39 C44.01 38.67 43.02 38.34 42 38 C42 37.34 42 36.68 42 36 C41.01 36 40.02 36 39 36 C39 35.34 39 34.68 39 34 C38.34 33.7525 37.68 33.505 37 33.25 C34.65956354 32.27481814 32.49082249 31.23220934 30.25 30.0625 C20.06453391 25.01683473 11.30615959 24.44512439 0 24 C0 16.08 0 8.16 0 0 Z " fill="#049712" transform="translate(27,75)"/>
<path d="M0 0 C5.36425597 6.21350692 9.16039489 13.3485482 8.875 21.625 C7.84498368 25.59792007 7.05522841 27.24284265 4 30 C-5.87795248 35.54584478 -16.98226221 35.21937973 -28 35 C-28 34.01 -28 33.02 -28 32 C-27.34 32 -26.68 32 -26 32 C-25.72929688 31.40960938 -25.45859375 30.81921875 -25.1796875 30.2109375 C-24.01809379 28.03391088 -22.74167105 26.476214 -21.125 24.625 C-18.20621905 20.89427998 -17.2470224 17.53201878 -16.1875 12.9375 C-14.58243291 6.6655992 -12.52711543 3.70217896 -7.31640625 -0.05859375 C-4.32034752 -1.27621627 -2.99983292 -1.20280841 0 0 Z " fill="#FDD74A" transform="translate(135,39)"/>
<path d="M0 0 C10.00211416 -0.602537 10.00211416 -0.602537 12.84375 1.11328125 C14.1875 2.5 14.1875 2.5 16 5 C16.680625 4.175 17.36125 3.35 18.0625 2.5 C21 0 21 0 24.5 -0.5625 C28.50538252 0.08122219 30.15945826 1.15945826 33 4 C34.75472073 7.50944146 33.95563207 11.28951133 33 15 C30.40659846 18.03798467 28.93780567 18.86323667 25 19.4375 C21.54798392 18.93408099 19.74227995 18.14935455 17 16 C15.1875 13.3125 15.1875 13.3125 14 11 C14 14.11257569 14.17361624 16.10765685 15 19 C13.35 19 11.7 19 10 19 C10 18.34 10 17.68 10 17 C9.34 17 8.68 17 8 17 C7.34 16.01 6.68 15.02 6 14 C5.34 15.65 4.68 17.3 4 19 C2.68 19 1.36 19 0 19 C0 12.73 0 6.46 0 0 Z M5 5 C5 5.99 5 6.98 5 8 C6.65 7.67 8.3 7.34 10 7 C10 6.34 10 5.68 10 5 C8.35 5 6.7 5 5 5 Z M20 7 C20.32198966 10.09926819 20.32198966 10.09926819 21 13 C23.34533951 13.76956136 23.34533951 13.76956136 26 14 C28 13 28 13 29 11 C28.75794651 7.68181015 28.75794651 7.68181015 27 5 C23.038832 4.60909667 23.038832 4.60909667 20 7 Z " fill="#049812" transform="translate(71,130)"/>
<path d="M0 0 C1.98 0 3.96 0 6 0 C8.53309233 4.64203897 10.46515599 8.65155992 11 14 C11.70125 13.62875 12.4025 13.2575 13.125 12.875 C16.76443651 11.76734541 18.55700411 12.55874591 22 14 C22 13.34 22 12.68 22 12 C20.906875 11.9175 19.81375 11.835 18.6875 11.75 C15 11 15 11 13 9.1875 C12 7 12 7 12.1875 4.9375 C13 3 13 3 15 0 C17.09375 -0.328125 17.09375 -0.328125 19.5 -0.25 C20.69109375 -0.22679687 20.69109375 -0.22679687 21.90625 -0.203125 C24 0 24 0 26 1 C25.67 2.65 25.34 4.3 25 6 C23.02 6 21.04 6 19 6 C20.134375 6.474375 21.26875 6.94875 22.4375 7.4375 C26 9 26 9 27 10 C26.75 13.4375 26.75 13.4375 26 17 C22.51195905 19.32536063 21.09859246 19.33457898 17 19 C14.625 18 14.625 18 13 17 C13 17.66 13 18.32 13 19 C11.35 19 9.7 19 8 19 C7.67 18.01 7.34 17.02 7 16 C4.6568787 16.25561323 2.32156597 16.59270772 0 17 C-0.33 17.66 -0.66 18.32 -1 19 C-2.65 19 -4.3 19 -6 19 C-4.70024676 12.28460827 -2.70071112 6.27980887 0 0 Z M3 9 C2.67 9.99 2.34 10.98 2 12 C2.99 12 3.98 12 5 12 C4.67 11.01 4.34 10.02 4 9 C3.67 9 3.34 9 3 9 Z " fill="#049611" transform="translate(21,130)"/>
<path d="M0 0 C1.65 0 3.3 0 5 0 C5 4.62 5 9.24 5 14 C7.64 14 10.28 14 13 14 C14.98 9.38 16.96 4.76 19 0 C20.98 0 22.96 0 25 0 C27.70071112 6.27980887 29.70024676 12.28460827 31 19 C29.35 19 27.7 19 26 19 C25.67 18.34 25.34 17.68 25 17 C22.67843403 16.59270772 20.3431213 16.25561323 18 16 C18 16.99 18 17.98 18 19 C12.06 19 6.12 19 0 19 C0 12.73 0 6.46 0 0 Z M21 9 C21 9.99 21 10.98 21 12 C21.66 12 22.32 12 23 12 C23 11.01 23 10.02 23 9 C22.34 9 21.68 9 21 9 Z " fill="#049711" transform="translate(112,130)"/>
<path d="M0 0 C6 0 12 0 18 0 C19.92572521 3.85145043 19.04883218 8.80043252 19 13 C12.4 13 5.8 13 -1 13 C-1.125 2.25 -1.125 2.25 0 0 Z " fill="#049712" transform="translate(81,55)"/>
<path d="M0 0 C5 0 5 0 6.58203125 1.53125 C6.98808594 2.1809375 7.39414063 2.830625 7.8125 3.5 C8.23144531 4.1496875 8.65039062 4.799375 9.08203125 5.46875 C9.38496094 5.9740625 9.68789062 6.479375 10 7 C10.33 4.69 10.66 2.38 11 0 C12.65 0 14.3 0 16 0 C16 6.27 16 12.54 16 19 C14.35 19 12.7 19 11 19 C9.18116991 16.6167054 8 15.04181663 8 12 C7.34 12 6.68 12 6 12 C5.67 14.31 5.34 16.62 5 19 C3.35 19 1.7 19 0 19 C0 12.73 0 6.46 0 0 Z " fill="#049611" transform="translate(144,130)"/>
<path d="M0 0 C10.75 -0.125 10.75 -0.125 13 1 C13 1.66 13 2.32 13 3 C13.99 3.33 14.98 3.66 16 4 C17.74457836 7.48915673 17.00026346 11.31659738 16 15 C10.92974674 19.26968695 6.69528769 19 0 19 C0 12.73 0 6.46 0 0 Z M5 5 C5 7.97 5 10.94 5 14 C7.45224694 13.89386164 7.45224694 13.89386164 10 13 C11.57223394 10.69464365 11.57223394 10.69464365 12 8 C11.34 7.01 10.68 6.02 10 5 C7.41619823 4.74969023 7.41619823 4.74969023 5 5 Z " fill="#049511" transform="translate(162,130)"/>
<path d="M0 0 C10.33031812 -0.36893993 10.33031812 -0.36893993 13.33984375 1.2890625 C15 3 15 3 15.3125 6.5625 C15 10 15 10 14 12 C11.93359375 12.4140625 11.93359375 12.4140625 9.4375 12.625 C8.61121094 12.69976562 7.78492188 12.77453125 6.93359375 12.8515625 C5.97646484 12.92503906 5.97646484 12.92503906 5 13 C5 14.98 5 16.96 5 19 C3.35 19 1.7 19 0 19 C0 12.73 0 6.46 0 0 Z M5 5 C5 5.99 5 6.98 5 8 C6.65 7.67 8.3 7.34 10 7 C10 6.34 10 5.68 10 5 C8.35 5 6.7 5 5 5 Z " fill="#049712" transform="translate(55,130)"/>
<path d="M0 0 C1.65 0 3.3 0 5 0 C5.02709444 2.08326131 5.04643873 4.16662441 5.0625 6.25 C5.07410156 7.41015625 5.08570313 8.5703125 5.09765625 9.765625 C4.95074627 14.63128358 4.95074627 14.63128358 4 17 C1 19 1 19 -2.5625 18.6875 C-6 18 -6 18 -8 17 C-7.67 15.68 -7.34 14.36 -7 13 C-5 13 -3 13 -1 13 C-0.67 8.71 -0.34 4.42 0 0 Z " fill="#039513" transform="translate(10,130)"/>
<path d="M0 0 C2.31 0 4.62 0 7 0 C7 2.97 7 5.94 7 9 C4.69 9 2.38 9 0 9 C0 6.03 0 3.06 0 0 Z " fill="#000000" transform="translate(129,160)"/>
<path d="M0 0 C2.31 0 4.62 0 7 0 C7 2.97 7 5.94 7 9 C4.69 9 2.38 9 0 9 C0 6.03 0 3.06 0 0 Z " fill="#000000" transform="translate(57,160)"/>
<path d="M0 0 C0.66 0 1.32 0 2 0 C2.66 0.66 3.32 1.32 4 2 C5.32 1.34 6.64 0.68 8 0 C8 2.97 8 5.94 8 9 C7.01 8.67 6.02 8.34 5 8 C2.36195411 8.39397335 2.36195411 8.39397335 0 9 C0 6.03 0 3.06 0 0 Z " fill="#000000" transform="translate(114,160)"/>
<path d="M0 0 C6.875 0.875 6.875 0.875 8 2 C8.1875 4.4375 8.1875 4.4375 8 7 C6 9 6 9 2.875 9.125 C1.451875 9.063125 1.451875 9.063125 0 9 C0 6.03 0 3.06 0 0 Z M3 3 C3.33 4.32 3.66 5.64 4 7 C4.66 6.01 5.32 5.02 6 4 C5.01 3.67 4.02 3.34 3 3 Z " fill="#000000" transform="translate(14,160)"/>
<path d="M0 0 C1.32 0.33 2.64 0.66 4 1 C4.33 1.66 4.66 2.32 5 3 C5.33 2.01 5.66 1.02 6 0 C6.66 0 7.32 0 8 0 C8 2.97 8 5.94 8 9 C6.68 8.67 5.36 8.34 4 8 C3.67 7.34 3.34 6.68 3 6 C2.67 6.99 2.34 7.98 2 9 C1.34 9 0.68 9 0 9 C0 6.03 0 3.06 0 0 Z " fill="#000000" transform="translate(143,160)"/>
<path d="M0 0 C2.31 0 4.62 0 7 0 C7 3 7 6 7 9 C4.69 9 2.38 9 0 9 C0 6.03 0 3.06 0 0 Z " fill="#000000" transform="translate(29,160)"/>
<path d="M0 0 C2.33944736 0.28730055 4.6739143 0.61936779 7 1 C6.67 2.65 6.34 4.3 6 6 C4.68 6 3.36 6 2 6 C2 6.99 2 7.98 2 9 C1.01 9 0.02 9 -1 9 C-1.09765625 2.84765625 -1.09765625 2.84765625 -1 1 C-0.67 0.67 -0.34 0.34 0 0 Z " fill="#000000" transform="translate(100,160)"/>
<path d="M0 0 C0.763125 0.20625 1.52625 0.4125 2.3125 0.625 C2.3125 2.935 2.3125 5.245 2.3125 7.625 C-3.4375 8.75 -3.4375 8.75 -5.6875 7.625 C-5.875 4.75 -5.875 4.75 -5.6875 1.625 C-2.6875 -0.375 -2.6875 -0.375 0 0 Z M-3.6875 2.625 C-3.6875 3.615 -3.6875 4.605 -3.6875 5.625 C-2.6975 5.955 -1.7075 6.285 -0.6875 6.625 C-0.3575 5.305 -0.0275 3.985 0.3125 2.625 C-1.0075 2.625 -2.3275 2.625 -3.6875 2.625 Z " fill="#000000" transform="translate(89.6875,160.375)"/>
<path d="M0 0 C0.99 0 1.98 0 3 0 C3.33 0.99 3.66 1.98 4 3 C4.680625 2.2575 4.680625 2.2575 5.375 1.5 C7 0 7 0 9 0 C8.5020163 3.73487777 8.12508244 5.81237635 6 9 C5.01 9 4.02 9 3 9 C2.01 6.03 1.02 3.06 0 0 Z " fill="#000000" transform="translate(42,160)"/>
<path d="M0 0 C2.31 0 4.62 0 7 0 C7 0.99 7 1.98 7 3 C6.34 3 5.68 3 5 3 C5 4.98 5 6.96 5 9 C4.01 9 3.02 9 2 9 C2 7.02 2 5.04 2 3 C1.34 3 0.68 3 0 3 C0 2.01 0 1.02 0 0 Z " fill="#000000" transform="translate(158,160)"/>
<path d="M0 0 C0.66 0 1.32 0 2 0 C2 2.31 2 4.62 2 7 C3.65 7 5.3 7 7 7 C7 7.66 7 8.32 7 9 C4.69 9 2.38 9 0 9 C0 6.03 0 3.06 0 0 Z " fill="#000000" transform="translate(71,160)"/>
</svg>
